{
  "accessors": [
    {
      "bufferView": 2,
      "componentType": 5126,
      "count": 4,
      "max": [
        2.8418495655059814,
        0.0,
        2.8418495655059814
      ],
      "min": [
        -2.8418495655059814,
        0.0,
        -2.8418495655059814
      ],
      "type": "VEC3"
    },
    {
      "bufferView": 2,
      "byteOffset": 48,
      "componentType": 5126,
      "count": 4,
      "max": [
        0.0,
        1.0,
        -0.0
      ],
      "min": [
        0.0,
        1.0,
        -0.0
      ],
      "type": "VEC3"
    },
    {
      "bufferView": 1,
      "componentType": 5126,
      "count": 4,
      "max": [
        1.0,
        1.0
      ],
      "min": [
        0.0,
        0.0
      ],
      "type": "VEC2"
    },
    {
      "bufferView": 0,
      "componentType": 5125,
      "count": 6,
      "type": "SCALAR"
    },
    {
      "bufferView": 2,
      "byteOffset": 96,
      "componentType": 5126,
      "count": 476,
      "max": [
        0.36885058879852295,
        0.07311199605464935,
        0.3682233989238739
      ],
      "min": [
        -0.3450048267841339,
        -0.07456877827644348,
        -0.3546019494533539
      ],
      "type": "VEC3"
    },
    {
      "bufferView": 2,
      "byteOffset": 5808,
      "componentType": 5126,
      "count": 476,
      "max": [
        0.9987061619758606,
        0.9979672431945801,
        0.9607980251312256
      ],
      "min": [
        -0.9988992214202881,
        -0.9980795979499817,
        -0.9946805834770203
      ],
      "type": "VEC3"
    },
    {
      "bufferView": 1,
      "byteOffset": 32,
      "componentType": 5126,
      "count": 476,
      "max": [
        0.9990637302398682,
        0.9637014269828796
      ],
      "min": [
        0.00039834724157117307,
        0.03808803856372833
      ],
      "type": "VEC2"
    },
    {
      "bufferView": 0,
      "byteOffset": 24,
      "componentType": 5125,
      "count": 804,
      "type": "SCALAR"
    },
    {
      "bufferView": 2,
      "byteOffset": 11520,
      "componentType": 5126,
      "count": 288,
      "max": [
        0.23505187034606934,
        0.055384311825037,
        0.234746515750885
      ],
      "min": [
        -0.241704061627388,
        -0.05161048844456673,
        -0.2337971180677414
      ],
      "type": "VEC3"
    },
    {
      "bufferView": 2,
      "byteOffset": 14976,
      "componentType": 5126,
      "count": 288,
      "max": [
        0.9546220302581787,
        0.9999961853027344,
        0.9627158641815186
      ],
      "min": [
        -0.9869264960289001,
        0.136906698346138,
        -0.9695855975151062
      ],
      "type": "VEC3"
    },
    {
      "bufferView": 1,
      "byteOffset": 3840,
      "componentType": 5126,
      "count": 288,
      "max": [
        0.8218772411346436,
        0.9995999932289124
      ],
      "min": [
        0.0003971016267314553,
        0.0003970309626311064
      ],
      "type": "VEC2"
    },
    {
      "bufferView": 0,
      "byteOffset": 3240,
      "componentType": 5125,
      "count": 474,
      "type": "SCALAR"
    },
    {
      "bufferView": 2,
      "byteOffset": 18432,
      "componentType": 5126,
      "count": 320,
      "max": [
        0.3922092318534851,
        0.08378607779741287,
        0.35353514552116394
      ],
      "min": [
        -0.32745447754859924,
        -0.03102567046880722,
        -0.3332674205303192
      ],
      "type": "VEC3"
    },
    {
      "bufferView": 2,
      "byteOffset": 22272,
      "componentType": 5126,
      "count": 320,
      "max": [
        0.9194155931472778,
        0.9997528195381165,
        0.995011031627655
      ],
      "min": [
        -0.9996204376220703,
        -0.9999454021453857,
        -0.9868675470352173
      ],
      "type": "VEC3"
    },
    {
      "bufferView": 1,
      "byteOffset": 6144,
      "componentType": 5126,
      "count": 320,
      "max": [
        0.9985170960426331,
        0.8881283402442932
      ],
      "min": [
        0.8120325207710266,
        0.0004398967430461198
      ],
      "type": "VEC2"
    },
    {
      "bufferView": 0,
      "byteOffset": 5136,
      "componentType": 5125,
      "count": 564,
      "type": "SCALAR"
    },
    {
      "bufferView": 2,
      "byteOffset": 26112,
      "componentType": 5126,
      "count": 297,
      "max": [
        0.40142109990119934,
        0.08458589762449265,
        0.3958059847354889
      ],
      "min": [
        -0.39347463846206665,
        -0.06427846103906631,
        -0.38269713521003723
      ],
      "type": "VEC3"
    },
    {
      "bufferView": 2,
      "byteOffset": 29676,
      "componentType": 5126,
      "count": 297,
      "max": [
        0.9935793876647949,
        0.9998617172241211,
        0.9994422793388367
      ],
      "min": [
        -0.9956476092338562,
        -0.09158488363027573,
        -0.9975886940956116
      ],
      "type": "VEC3"
    },
    {
      "bufferView": 1,
      "byteOffset": 8704,
      "componentType": 5126,
      "count": 297,
      "max": [
        0.9956165552139282,
        0.8618754744529724
      ],
      "min": [
        0.0004020953783765435,
        0.00039680235204286873
      ],
      "type": "VEC2"
    },
    {
      "bufferView": 0,
      "byteOffset": 7392,
      "componentType": 5125,
      "count": 489,
      "type": "SCALAR"
    },
    {
      "bufferView": 2,
      "byteOffset": 33240,
      "componentType": 5126,
      "count": 576,
      "max": [
        0.36867019534111023,
        0.09028766304254532,
        0.31907352805137634
      ],
      "min": [
        -0.3339422345161438,
        -0.07013906538486481,
        -0.29662203788757324
      ],
      "type": "VEC3"
    },
    {
      "bufferView": 2,
      "byteOffset": 40152,
      "componentType": 5126,
      "count": 576,
      "max": [
        0.998684287071228,
        0.9999731183052063,
        0.9924069046974182
      ],
      "min": [
        -0.9405224323272705,
        -0.9998723268508911,
        -0.9582986235618591
      ],
      "type": "VEC3"
    },
    {
      "bufferView": 1,
      "byteOffset": 11080,
      "componentType": 5126,
      "count": 576,
      "max": [
        0.9680914878845215,
        0.9708350300788879
      ],
      "min": [
        0.002760246628895402,
        0.03436582162976265
      ],
      "type": "VEC2"
    },
    {
      "bufferView": 0,
      "byteOffset": 9348,
      "componentType": 5125,
      "count": 948,
      "type": "SCALAR"
    },
    {
      "bufferView": 2,
      "byteOffset": 47064,
      "componentType": 5126,
      "count": 1619,
      "max": [
        0.6388699412345886,
        0.4692634046077728,
        0.6388699412345886
      ],
      "min": [
        -0.6388699412345886,
        -0.043055422604084015,
        -0.6388699412345886
      ],
      "type": "VEC3"
    },
    {
      "bufferView": 2,
      "byteOffset": 66492,
      "componentType": 5126,
      "count": 1619,
      "max": [
        0.9987953901290894,
        1.0,
        0.9987954497337341
      ],
      "min": [
        -0.9987954497337341,
        -0.1968160718679428,
        -0.9987954497337341
      ],
      "type": "VEC3"
    },
    {
      "bufferView": 1,
      "byteOffset": 15688,
      "componentType": 5126,
      "count": 1619,
      "max": [
        0.9706878066062927,
        0.965761661529541
      ],
      "min": [
        0.0003982335329055786,
        0.00039696693420410156
      ],
      "type": "VEC2"
    },
    {
      "bufferView": 0,
      "byteOffset": 13140,
      "componentType": 5125,
      "count": 3258,
      "type": "SCALAR"
    }
  ],
  "asset": {
    "extras": {
      "author": "Omar Faruq Tawsif (https://sketchfab.com/omarfaruqtawsif32)",
      "license": "CC-BY-4.0 (http://creativecommons.org/licenses/by/4.0/)",
      "source": "https://sketchfab.com/3d-models/pickles-3d-version-of-hyuna-lees-illustration-7b81fa2a3b33403fb47d451b24c78ffe",
      "title": "\"Pickles\" 3d version of Hyuna Lee's illustration"
    },
    "generator": "Sketchfab-13.88.0",
    "version": "2.0"
  },
  "bufferViews": [
    {
      "buffer": 0,
      "byteLength": 26172,
      "name": "floatBufferViews",
      "target": 34963
    },
    {
      "buffer": 0,
      "byteLength": 28640,
      "byteOffset": 26172,
      "byteStride": 8,
      "name": "floatBufferViews",
      "target": 34962
    },
    {
      "buffer": 0,
      "byteLength": 85920,
      "byteOffset": 54812,
      "byteStride": 12,
      "name": "floatBufferViews",
      "target": 34962
    }
  ],
  "buffers": [
    {
      "byteLength": 140732,
      "uri": "scene.bin"
    }
  ],
  "extensionsUsed": [
    "KHR_materials_unlit"
  ],
  "images": [
    {
      "uri": "textures/floor.001_baseColor.jpeg"
    },
    {
      "uri": "textures/cup_pickle__Base_Color.001_baseColor.jpeg"
    }
  ],
  "materials": [
    {
      "doubleSided": true,
      "extensions": {
        "KHR_materials_unlit": {}
      },
      "name": "floor.001",
      "pbrMetallicRoughness": {
        "baseColorTexture": {
          "index": 0
        },
        "metallicFactor": 0.0
      }
    },
    {
      "doubleSided": true,
      "extensions": {
        "KHR_materials_unlit": {}
      },
      "name": "cup_pickle__Base_Color.001",
      "pbrMetallicRoughness": {
        "baseColorTexture": {
          "index": 1
        },
        "metallicFactor": 0.0
      }
    }
  ],
  "meshes": [
    {
      "name": "Object_0",
      "primitives": [
        {
          "attributes": {
            "NORMAL": 1,
            "POSITION": 0,
            "TEXCOORD_0": 2
          },
          "indices": 3,
          "material": 0,
          "mode": 4
        }
      ]
    },
    {
      "name": "Object_1",
      "primitives": [
        {
          "attributes": {
            "NORMAL": 5,
            "POSITION": 4,
            "TEXCOORD_0": 6
          },
          "indices": 7,
          "material": 1,
          "mode": 4
        }
      ]
    },
    {
      "name": "Object_2",
      "primitives": [
        {
          "attributes": {
            "NORMAL": 9,
            "POSITION": 8,
            "TEXCOORD_0": 10
          },
          "indices": 11,
          "material": 1,
          "mode": 4
        }
      ]
    },
    {
      "name": "Object_3",
      "primitives": [
        {
          "attributes": {
            "NORMAL": 13,
            "POSITION": 12,
            "TEXCOORD_0": 14
          },
          "indices": 15,
          "material": 1,
          "mode": 4
        }
      ]
    },
    {
      "name": "Object_4",
      "primitives": [
        {
          "attributes": {
            "NORMAL": 17,
            "POSITION": 16,
            "TEXCOORD_0": 18
          },
          "indices": 19,
          "material": 1,
          "mode": 4
        }
      ]
    },
    {
      "name": "Object_5",
      "primitives": [
        {
          "attributes": {
            "NORMAL": 21,
            "POSITION": 20,
            "TEXCOORD_0": 22
          },
          "indices": 23,
          "material": 1,
          "mode": 4
        }
      ]
    },
    {
      "name": "Object_6",
      "primitives": [
        {
          "attributes": {
            "NORMAL": 25,
            "POSITION": 24,
            "TEXCOORD_0": 26
          },
          "indices": 27,
          "material": 1,
          "mode": 4
        }
      ]
    }
  ],
  "nodes": [
    {
      "children": [
        1
      ],
      "matrix": [
        0.11168881505727768,
        0.0,
        0.0,
        0.0,
        0.0,
        2.479989881393811e-17,
        -0.11168881505727768,
        0.0,
        0.0,
        0.11168881505727768,
        2.479989881393811e-17,
        0.0,
        0.0,
        0.0,
        0.0,
        1.0
      ],
      "name": "Sketchfab_model"
    },
    {
      "children": [
        2
      ],
      "name": "root"
    },
    {
      "children": [
        3,
        5,
        7,
        9,
        11,
        13,
        15
      ],
      "matrix": [
        1.0,
        0.0,
        0.0,
        0.0,
        0.0,
        2.220446049250313e-16,
        1.0,
        0.0,
        0.0,
        -1.0,
        2.220446049250313e-16,
        0.0,
        0.0,
        0.0,
        0.0,
        1.0
      ],
      "name": "GLTF_SceneRootNode"
    },
    {
      "children": [
        4
      ],
      "matrix": [
        0.9754315283435321,
        0.0,
        -0.0020617293697022024,
        0.0,
        0.0,
        0.9754337668418884,
        0.0,
        0.0,
        0.0020617293697022024,
        0.0,
        0.9754315283435321,
        0.0,
        0.0,
        -0.04867829009890556,
        0.0,
        1.0
      ],
      "name": "floor_0"
    },
    {
      "mesh": 0,
      "name": "Object_4"
    },
    {
      "children": [
        6
      ],
      "matrix": [
        0.7537900266018465,
        0.631437533439933,
        -0.18189897514521963,
        0.0,
        -0.6353742737962124,
        0.6297537274274366,
        -0.4468889962722125,
        0.0,
        -0.16763092791464057,
        0.45243439762527277,
        0.8759012432072084,
        0.0,
        -0.20270854234695435,
        0.3882175385951996,
        0.18994729220867157,
        1.0
      ],
      "name": "Cylinder.005_1"
    },
    {
      "mesh": 1,
      "name": "Object_6"
    },
    {
      "children": [
        8
      ],
      "matrix": [
        0.6812733941905048,
        0.3521020571316644,
        0.5719899371817146,
        0.0,
        -0.31316912898875754,
        0.8872540330000734,
        -0.17316768760631107,
        0.0,
        -0.5941998984266496,
        -0.06392268549971633,
        0.747075888775387,
        0.0,
        0.03675605356693268,
        0.35506966710090637,
        0.24107596278190613,
        1.0
      ],
      "name": "Cylinder.004_2"
    },
    {
      "mesh": 2,
      "name": "Object_8"
    },
    {
      "children": [
        10
      ],
      "matrix": [
        0.5664045132015445,
        0.7123420419023256,
        -0.22833122642262443,
        0.0,
        -0.6046175196105225,
        0.26732027553506676,
        -0.6658511993019145,
        0.0,
        -0.44045870205036214,
        0.5490801105767361,
        0.6203928066929147,
        0.0,
        -0.20313574373722076,
        0.4018169939517975,
        -0.09068116545677185,
        1.0
      ],
      "name": "Cylinder.003_3"
    },
    {
      "mesh": 3,
      "name": "Object_10"
    },
    {
      "children": [
        12
      ],
      "matrix": [
        0.7207827053100088,
        0.3709212326503297,
        0.5855678704429957,
        0.0,
        -0.36351544543664116,
        0.9215635238225361,
        -0.13629817492831714,
        0.0,
        -0.5901938771751071,
        -0.11462159800382171,
        0.7990826469246249,
        0.0,
        0.21782495081424713,
        0.2521778643131256,
        0.08637813478708267,
        1.0
      ],
      "name": "Cylinder.002_4"
    },
    {
      "mesh": 4,
      "name": "Object_12"
    },
    {
      "children": [
        14
      ],
      "matrix": [
        -0.3390497803888537,
        0.7406043658089482,
        0.5801296577171311,
        0.0,
        -0.6211726663328322,
        0.2868820206896502,
        -0.7292758221729163,
        0.0,
        -0.7065336262480577,
        -0.6076214936535316,
        0.36277590249494407,
        0.0,
        -0.2881254255771637,
        0.4092404842376709,
        -0.22083409130573273,
        1.0
      ],
      "name": "Cylinder.001_5"
    },
    {
      "mesh": 5,
      "name": "Object_14"
    },
    {
      "children": [
        16
      ],
      "matrix": [
        0.9698722082843926,
        0.0,
        0.24361424342093757,
        0.0,
        -0.0,
        1.0,
        0.0,
        0.0,
        -0.24361424342093757,
        -0.0,
        0.9698722082843926,
        0.0,
        0.0,
        0.0,
        0.0,
        1.0
      ],
      "name": "Cylinder_6"
    },
    {
      "mesh": 6,
      "name": "Object_16"
    }
  ],
  "samplers": [
    {
      "magFilter": 9729,
      "minFilter": 9987,
      "wrapS": 10497,
      "wrapT": 10497
    }
  ],
  "scene": 0,
  "scenes": [
    {
      "name": "Sketchfab_Scene",
      "nodes": [
        0
      ]
    }
  ],
  "textures": [
    {
      "sampler": 0,
      "source": 0
    },
    {
      "sampler": 0,
      "source": 1
    }
  ]
}
