{
  "accessors": [
    {
      "bufferView": 2,
      "componentType": 5126,
      "count": 344,
      "max": [
        0.16089209914207458,
        0.01659662276506424,
        0.03469613194465637
      ],
      "min": [
        -0.08742183446884155,
        -0.01659662276506424,
        -0.06466047465801239
      ],
      "type": "VEC3"
    },
    {
      "bufferView": 2,
      "byteOffset": 4128,
      "componentType": 5126,
      "count": 344,
      "max": [
        1.0,
        1.0,
        1.0
      ],
      "min": [
        -1.0,
        -1.0,
        -1.0
      ],
      "type": "VEC3"
    },
    {
      "bufferView": 3,
      "componentType": 5126,
      "count": 344,
      "max": [
        1.0,
        1.0,
        0.00022325896134134382,
        1.0
      ],
      "min": [
        -1.0,
        -1.0,
        -0.0005346517427824438,
        1.0
      ],
      "type": "VEC4"
    },
    {
      "bufferView": 1,
      "componentType": 5126,
      "count": 344,
      "max": [
        0.9874693751335144,
        0.9902585744857788
      ],
      "min": [
        0.06806294620037079,
        0.1705637127161026
      ],
      "type": "VEC2"
    },
    {
      "bufferView": 0,
      "componentType": 5125,
      "count": 972,
      "type": "SCALAR"
    },
    {
      "bufferView": 2,
      "byteOffset": 8256,
      "componentType": 5126,
      "count": 1842,
      "max": [
        0.8996270895004272,
        0.08643810451030731,
        0.16389170289039612
      ],
      "min": [
        -0.8872575759887695,
        -0.08643810451030731,
        -0.3530181348323822
      ],
      "type": "VEC3"
    },
    {
      "bufferView": 2,
      "byteOffset": 30360,
      "componentType": 5126,
      "count": 1842,
      "max": [
        1.0,
        1.0,
        1.0
      ],
      "min": [
        -1.0,
        -1.0,
        -1.0
      ],
      "type": "VEC3"
    },
    {
      "bufferView": 3,
      "byteOffset": 5504,
      "componentType": 5126,
      "count": 1842,
      "max": [
        1.0,
        1.0,
        1.0,
        1.0
      ],
      "min": [
        -1.0,
        -1.0,
        -1.0,
        1.0
      ],
      "type": "VEC4"
    },
    {
      "bufferView": 1,
      "byteOffset": 2752,
      "componentType": 5126,
      "count": 1842,
      "max": [
        0.999755859375,
        0.9907739162445068
      ],
      "min": [
        0.000244140625,
        0.000244149356149137
      ],
      "type": "VEC2"
    },
    {
      "bufferView": 0,
      "byteOffset": 3888,
      "componentType": 5125,
      "count": 4536,
      "type": "SCALAR"
    },
    {
      "bufferView": 2,
      "byteOffset": 52464,
      "componentType": 5126,
      "count": 867,
      "max": [
        0.20922835171222687,
        0.020092379301786423,
        0.30719566345214844
      ],
      "min": [
        -2.858794689178467,
        -0.020092379301786423,
        -0.09969687461853027
      ],
      "type": "VEC3"
    },
    {
      "bufferView": 2,
      "byteOffset": 62868,
      "componentType": 5126,
      "count": 867,
      "max": [
        0.9999343752861023,
        1.0,
        0.9999756217002869
      ],
      "min": [
        -1.0,
        -1.0,
        -1.0
      ],
      "type": "VEC3"
    },
    {
      "bufferView": 3,
      "byteOffset": 34976,
      "componentType": 5126,
      "count": 867,
      "max": [
        0.999975860118866,
        1.0,
        0.9999496936798096,
        1.0
      ],
      "min": [
        -0.9924165606498718,
        -1.0,
        -0.9999757409095764,
        1.0
      ],
      "type": "VEC4"
    },
    {
      "bufferView": 1,
      "byteOffset": 17488,
      "componentType": 5126,
      "count": 867,
      "max": [
        0.9604153037071228,
        0.9904085397720337
      ],
      "min": [
        0.000244140625,
        0.000244140625
      ],
      "type": "VEC2"
    },
    {
      "bufferView": 0,
      "byteOffset": 22032,
      "componentType": 5125,
      "count": 2352,
      "type": "SCALAR"
    },
    {
      "bufferView": 2,
      "byteOffset": 73272,
      "componentType": 5126,
      "count": 141,
      "max": [
        0.12415490299463272,
        0.007008105982095003,
        0.3816981315612793
      ],
      "min": [
        -2.7282943725585938,
        -0.0070081488229334354,
        -0.029593028128147125
      ],
      "type": "VEC3"
    },
    {
      "bufferView": 2,
      "byteOffset": 74964,
      "componentType": 5126,
      "count": 141,
      "max": [
        0.939448893070221,
        1.0,
        0.9998730421066284
      ],
      "min": [
        -0.1853356659412384,
        -1.0,
        -0.3021036982536316
      ],
      "type": "VEC3"
    },
    {
      "bufferView": 3,
      "byteOffset": 48848,
      "componentType": 5126,
      "count": 141,
      "max": [
        0.9926058053970337,
        1.0,
        0.9995366930961609,
        1.0
      ],
      "min": [
        -0.9306316375732422,
        -1.0,
        -0.939448893070221,
        1.0
      ],
      "type": "VEC4"
    },
    {
      "bufferView": 1,
      "byteOffset": 24424,
      "componentType": 5126,
      "count": 141,
      "max": [
        0.7129663228988647,
        0.7131880521774292
      ],
      "min": [
        0.0003432421071920544,
        0.000244149356149137
      ],
      "type": "VEC2"
    },
    {
      "bufferView": 0,
      "byteOffset": 31440,
      "componentType": 5125,
      "count": 411,
      "type": "SCALAR"
    },
    {
      "bufferView": 2,
      "byteOffset": 76656,
      "componentType": 5126,
      "count": 32,
      "max": [
        0.019797325134277344,
        0.019109928980469704,
        0.036792196333408356
      ],
      "min": [
        -0.019797325134277344,
        -0.019109928980469704,
        -0.036792196333408356
      ],
      "type": "VEC3"
    },
    {
      "bufferView": 2,
      "byteOffset": 77040,
      "componentType": 5126,
      "count": 32,
      "max": [
        0.9990314841270447,
        0.9969684481620789,
        0.9990314841270447
      ],
      "min": [
        -0.9990314841270447,
        -0.9969683885574341,
        -0.7892428040504456
      ],
      "type": "VEC3"
    },
    {
      "bufferView": 3,
      "byteOffset": 51104,
      "componentType": 5126,
      "count": 32,
      "max": [
        0.0438690148293972,
        0.9969682097434998,
        0.9960029721260071,
        1.0
      ],
      "min": [
        -0.9990314841270447,
        -1.0,
        -0.6125028133392334,
        1.0
      ],
      "type": "VEC4"
    },
    {
      "bufferView": 1,
      "byteOffset": 25552,
      "componentType": 5126,
      "count": 32,
      "max": [
        0.9885697364807129,
        0.9847010374069214
      ],
      "min": [
        0.00026873973547481,
        0.4725019931793213
      ],
      "type": "VEC2"
    },
    {
      "bufferView": 0,
      "byteOffset": 33084,
      "componentType": 5125,
      "count": 60,
      "type": "SCALAR"
    },
    {
      "bufferView": 2,
      "byteOffset": 77424,
      "componentType": 5126,
      "count": 32,
      "max": [
        0.019797325134277344,
        0.019109928980469704,
        0.036792196333408356
      ],
      "min": [
        -0.019797325134277344,
        -0.019109928980469704,
        -0.036792196333408356
      ],
      "type": "VEC3"
    },
    {
      "bufferView": 2,
      "byteOffset": 77808,
      "componentType": 5126,
      "count": 32,
      "max": [
        0.9990314841270447,
        0.9969684481620789,
        0.9990314841270447
      ],
      "min": [
        -0.9990314841270447,
        -0.9969683885574341,
        -0.7892428040504456
      ],
      "type": "VEC3"
    },
    {
      "bufferView": 3,
      "byteOffset": 51616,
      "componentType": 5126,
      "count": 32,
      "max": [
        0.043869007378816605,
        0.7900080680847168,
        0.9960027933120728,
        1.0
      ],
      "min": [
        -0.9990314841270447,
        -1.0,
        -0.6125028133392334,
        1.0
      ],
      "type": "VEC4"
    },
    {
      "bufferView": 1,
      "byteOffset": 25808,
      "componentType": 5126,
      "count": 32,
      "max": [
        0.9795026183128357,
        0.9864873290061951
      ],
      "min": [
        0.3324597477912903,
        0.000244149356149137
      ],
      "type": "VEC2"
    },
    {
      "bufferView": 0,
      "byteOffset": 33324,
      "componentType": 5125,
      "count": 60,
      "type": "SCALAR"
    },
    {
      "bufferView": 2,
      "byteOffset": 78192,
      "componentType": 5126,
      "count": 32,
      "max": [
        0.021607235074043274,
        0.019109928980469704,
        0.037609998136758804
      ],
      "min": [
        -0.021607235074043274,
        -0.019109928980469704,
        -0.037609998136758804
      ],
      "type": "VEC3"
    },
    {
      "bufferView": 2,
      "byteOffset": 78576,
      "componentType": 5126,
      "count": 32,
      "max": [
        0.9953722953796387,
        0.9969684481620789,
        0.9953722953796387
      ],
      "min": [
        -0.9953722953796387,
        -0.9969683885574341,
        -0.7863520979881287
      ],
      "type": "VEC3"
    },
    {
      "bufferView": 3,
      "byteOffset": 52128,
      "componentType": 5126,
      "count": 32,
      "max": [
        0.9953722953796387,
        0.9969683885574341,
        0.9923548102378845,
        1.0
      ],
      "min": [
        -0.05891524255275726,
        -1.0,
        -0.6102593541145325,
        1.0
      ],
      "type": "VEC4"
    },
    {
      "bufferView": 1,
      "byteOffset": 26064,
      "componentType": 5126,
      "count": 32,
      "max": [
        0.979839563369751,
        0.9847009778022766
      ],
      "min": [
        0.09580015391111374,
        0.3805561363697052
      ],
      "type": "VEC2"
    },
    {
      "bufferView": 0,
      "byteOffset": 33564,
      "componentType": 5125,
      "count": 60,
      "type": "SCALAR"
    },
    {
      "bufferView": 2,
      "byteOffset": 78960,
      "componentType": 5126,
      "count": 32,
      "max": [
        0.021607235074043274,
        0.019109928980469704,
        0.037609998136758804
      ],
      "min": [
        -0.021607235074043274,
        -0.019109928980469704,
        -0.037609998136758804
      ],
      "type": "VEC3"
    },
    {
      "bufferView": 2,
      "byteOffset": 79344,
      "componentType": 5126,
      "count": 32,
      "max": [
        0.9953722953796387,
        0.9969684481620789,
        0.9953722953796387
      ],
      "min": [
        -0.9953722953796387,
        -0.9969683885574341,
        -0.7863520979881287
      ],
      "type": "VEC3"
    },
    {
      "bufferView": 3,
      "byteOffset": 52640,
      "componentType": 5126,
      "count": 32,
      "max": [
        0.058915261179208755,
        0.9969685673713684,
        0.6102593541145325,
        1.0
      ],
      "min": [
        -0.9953722953796387,
        -1.0,
        -0.9923546314239502,
        1.0
      ],
      "type": "VEC4"
    },
    {
      "bufferView": 1,
      "byteOffset": 26320,
      "componentType": 5126,
      "count": 32,
      "max": [
        0.9818437099456787,
        0.9845298528671265
      ],
      "min": [
        0.004818067420274019,
        0.3214033544063568
      ],
      "type": "VEC2"
    },
    {
      "bufferView": 0,
      "byteOffset": 33804,
      "componentType": 5125,
      "count": 60,
      "type": "SCALAR"
    },
    {
      "bufferView": 2,
      "byteOffset": 79728,
      "componentType": 5126,
      "count": 32,
      "max": [
        0.03240189328789711,
        0.019109930843114853,
        0.0339820422232151
      ],
      "min": [
        -0.03240189328789711,
        -0.019109930843114853,
        -0.0339820422232151
      ],
      "type": "VEC3"
    },
    {
      "bufferView": 2,
      "byteOffset": 80112,
      "componentType": 5126,
      "count": 32,
      "max": [
        0.7749544978141785,
        0.9953708648681641,
        0.7749544382095337
      ],
      "min": [
        -0.7749544978141785,
        -0.9953709244728088,
        -0.6320172548294067
      ],
      "type": "VEC3"
    },
    {
      "bufferView": 3,
      "byteOffset": 53152,
      "componentType": 5126,
      "count": 32,
      "max": [
        0.7749544978141785,
        1.0,
        0.6320173144340515,
        1.0
      ],
      "min": [
        -0.7749544978141785,
        -0.9953715205192566,
        -0.6320173144340515,
        1.0
      ],
      "type": "VEC4"
    },
    {
      "bufferView": 1,
      "byteOffset": 26576,
      "componentType": 5126,
      "count": 32,
      "max": [
        0.9595591425895691,
        0.990520715713501
      ],
      "min": [
        0.4942164421081543,
        0.12063369154930115
      ],
      "type": "VEC2"
    },
    {
      "bufferView": 0,
      "byteOffset": 34044,
      "componentType": 5125,
      "count": 60,
      "type": "SCALAR"
    },
    {
      "bufferView": 2,
      "byteOffset": 80496,
      "componentType": 5126,
      "count": 32,
      "max": [
        0.03240189328789711,
        0.019109930843114853,
        0.0339820422232151
      ],
      "min": [
        -0.03240189328789711,
        -0.019109930843114853,
        -0.0339820422232151
      ],
      "type": "VEC3"
    },
    {
      "bufferView": 2,
      "byteOffset": 80880,
      "componentType": 5126,
      "count": 32,
      "max": [
        0.7749544978141785,
        0.9953708648681641,
        0.7749544382095337
      ],
      "min": [
        -0.7749544978141785,
        -0.9953709244728088,
        -0.6320172548294067
      ],
      "type": "VEC3"
    },
    {
      "bufferView": 3,
      "byteOffset": 53664,
      "componentType": 5126,
      "count": 32,
      "max": [
        0.7749544978141785,
        1.0,
        0.6320173144340515,
        1.0
      ],
      "min": [
        -0.7749544382095337,
        -0.8069077134132385,
        -0.6320173144340515,
        1.0
      ],
      "type": "VEC4"
    },
    {
      "bufferView": 1,
      "byteOffset": 26832,
      "componentType": 5126,
      "count": 32,
      "max": [
        0.9595591425895691,
        0.882660448551178
      ],
      "min": [
        0.3430662155151367,
        0.08799856901168823
      ],
      "type": "VEC2"
    },
    {
      "bufferView": 0,
      "byteOffset": 34284,
      "componentType": 5125,
      "count": 60,
      "type": "SCALAR"
    },
    {
      "bufferView": 2,
      "byteOffset": 81264,
      "componentType": 5126,
      "count": 4,
      "max": [
        0.1527545005083084,
        1.091868928604356e-09,
        0.02497904933989048
      ],
      "min": [
        -0.1527545005083084,
        -1.091868928604356e-09,
        -0.02497904933989048
      ],
      "type": "VEC3"
    },
    {
      "bufferView": 2,
      "byteOffset": 81312,
      "componentType": 5126,
      "count": 4,
      "max": [
        0.0,
        -1.0,
        -4.371138828673793e-08
      ],
      "min": [
        0.0,
        -1.0,
        -4.371138828673793e-08
      ],
      "type": "VEC3"
    },
    {
      "bufferView": 3,
      "byteOffset": 54176,
      "componentType": 5126,
      "count": 4,
      "max": [
        1.0,
        0.0,
        0.0,
        1.0
      ],
      "min": [
        1.0,
        0.0,
        0.0,
        1.0
      ],
      "type": "VEC4"
    },
    {
      "bufferView": 1,
      "byteOffset": 27088,
      "componentType": 5126,
      "count": 4,
      "max": [
        0.6970481276512146,
        0.7257660031318665
      ],
      "min": [
        0.5347034931182861,
        0.6992188096046448
      ],
      "type": "VEC2"
    },
    {
      "bufferView": 0,
      "byteOffset": 34524,
      "componentType": 5125,
      "count": 6,
      "type": "SCALAR"
    },
    {
      "bufferView": 2,
      "byteOffset": 81360,
      "componentType": 5126,
      "count": 4,
      "max": [
        0.1527545005083084,
        1.091868928604356e-09,
        0.02497904933989048
      ],
      "min": [
        -0.1527545005083084,
        -1.091868928604356e-09,
        -0.02497904933989048
      ],
      "type": "VEC3"
    },
    {
      "bufferView": 2,
      "byteOffset": 81408,
      "componentType": 5126,
      "count": 4,
      "max": [
        0.0,
        -1.0,
        -4.371138828673793e-08
      ],
      "min": [
        0.0,
        -1.0,
        -4.371138828673793e-08
      ],
      "type": "VEC3"
    },
    {
      "bufferView": 3,
      "byteOffset": 54240,
      "componentType": 5126,
      "count": 4,
      "max": [
        -1.0,
        0.0,
        0.0,
        1.0
      ],
      "min": [
        -1.0,
        0.0,
        0.0,
        1.0
      ],
      "type": "VEC4"
    },
    {
      "bufferView": 1,
      "byteOffset": 27120,
      "componentType": 5126,
      "count": 4,
      "max": [
        0.6933757662773132,
        0.9092122316360474
      ],
      "min": [
        0.5310311913490295,
        0.8826649785041809
      ],
      "type": "VEC2"
    },
    {
      "bufferView": 0,
      "byteOffset": 34548,
      "componentType": 5125,
      "count": 6,
      "type": "SCALAR"
    },
    {
      "bufferView": 2,
      "byteOffset": 81456,
      "componentType": 5126,
      "count": 4,
      "max": [
        0.1527545005083084,
        1.091868928604356e-09,
        0.02497904933989048
      ],
      "min": [
        -0.1527545005083084,
        -1.091868928604356e-09,
        -0.02497904933989048
      ],
      "type": "VEC3"
    },
    {
      "bufferView": 2,
      "byteOffset": 81504,
      "componentType": 5126,
      "count": 4,
      "max": [
        0.0,
        1.0,
        4.371138828673793e-08
      ],
      "min": [
        0.0,
        1.0,
        4.371138828673793e-08
      ],
      "type": "VEC3"
    },
    {
      "bufferView": 3,
      "byteOffset": 54304,
      "componentType": 5126,
      "count": 4,
      "max": [
        -1.0,
        0.0,
        0.0,
        1.0
      ],
      "min": [
        -1.0,
        0.0,
        0.0,
        1.0
      ],
      "type": "VEC4"
    },
    {
      "bufferView": 1,
      "byteOffset": 27152,
      "componentType": 5126,
      "count": 4,
      "max": [
        0.16258902847766876,
        0.5377810597419739
      ],
      "min": [
        0.00024414941435679793,
        0.511233925819397
      ],
      "type": "VEC2"
    },
    {
      "bufferView": 0,
      "byteOffset": 34572,
      "componentType": 5125,
      "count": 6,
      "type": "SCALAR"
    },
    {
      "bufferView": 2,
      "byteOffset": 81552,
      "componentType": 5126,
      "count": 4,
      "max": [
        0.1527545005083084,
        1.091868928604356e-09,
        0.02497904933989048
      ],
      "min": [
        -0.1527545005083084,
        -1.091868928604356e-09,
        -0.02497904933989048
      ],
      "type": "VEC3"
    },
    {
      "bufferView": 2,
      "byteOffset": 81600,
      "componentType": 5126,
      "count": 4,
      "max": [
        0.0,
        1.0,
        4.371138828673793e-08
      ],
      "min": [
        0.0,
        1.0,
        4.371138828673793e-08
      ],
      "type": "VEC3"
    },
    {
      "bufferView": 3,
      "byteOffset": 54368,
      "componentType": 5126,
      "count": 4,
      "max": [
        -1.0,
        0.0,
        0.0,
        1.0
      ],
      "min": [
        -1.0,
        0.0,
        0.0,
        1.0
      ],
      "type": "VEC4"
    },
    {
      "bufferView": 1,
      "byteOffset": 27184,
      "componentType": 5126,
      "count": 4,
      "max": [
        0.355457603931427,
        0.9102322459220886
      ],
      "min": [
        0.19311319291591644,
        0.8836849331855774
      ],
      "type": "VEC2"
    },
    {
      "bufferView": 0,
      "byteOffset": 34596,
      "componentType": 5125,
      "count": 6,
      "type": "SCALAR"
    }
  ],
  "asset": {
    "extras": {
      "author": "Mikołaj Michalak (https://sketchfab.com/M_Michalak)",
      "license": "CC-BY-4.0 (http://creativecommons.org/licenses/by/4.0/)",
      "source": "https://sketchfab.com/3d-models/cyberpunk-katana-aa5505c8bd9c41c692159fa79e0e1693",
      "title": "Cyberpunk Katana"
    },
    "generator": "Sketchfab-15.76.0",
    "version": "2.0"
  },
  "bufferViews": [
    {
      "buffer": 0,
      "byteLength": 34620,
      "name": "floatBufferViews",
      "target": 34963
    },
    {
      "buffer": 0,
      "byteLength": 27216,
      "byteOffset": 34620,
      "byteStride": 8,
      "name": "floatBufferViews",
      "target": 34962
    },
    {
      "buffer": 0,
      "byteLength": 81648,
      "byteOffset": 61836,
      "byteStride": 12,
      "name": "floatBufferViews",
      "target": 34962
    },
    {
      "buffer": 0,
      "byteLength": 54432,
      "byteOffset": 143484,
      "byteStride": 16,
      "name": "floatBufferViews",
      "target": 34962
    }
  ],
  "buffers": [
    {
      "byteLength": 197916,
      "uri": "scene.bin"
    }
  ],
  "extensionsUsed": [
    "KHR_materials_emissive_strength"
  ],
  "images": [
    {
      "uri": "textures/Material.004_baseColor.png"
    },
    {
      "uri": "textures/Material.004_metallicRoughness.png"
    },
    {
      "uri": "textures/Material.004_emissive.jpeg"
    },
    {
      "uri": "textures/Material.004_normal.png"
    }
  ],
  "materials": [
    {
      "alphaMode": "BLEND",
      "doubleSided": true,
      "emissiveFactor": [
        1.0,
        1.0,
        1.0
      ],
      "emissiveTexture": {
        "index": 2
      },
      "extensions": {
        "KHR_materials_emissive_strength": {
          "emissiveStrength": 6.0
        }
      },
      "name": "Material.004",
      "normalTexture": {
        "index": 3
      },
      "pbrMetallicRoughness": {
        "baseColorTexture": {
          "index": 0
        },
        "metallicRoughnessTexture": {
          "index": 1
        }
      }
    }
  ],
  "meshes": [
    {
      "name": "Cube.079_Material.004_0",
      "primitives": [
        {
          "attributes": {
            "NORMAL": 1,
            "POSITION": 0,
            "TANGENT": 2,
            "TEXCOORD_0": 3
          },
          "indices": 4,
          "material": 0,
          "mode": 4
        }
      ]
    },
    {
      "name": "Cube.078_Material.004_0",
      "primitives": [
        {
          "attributes": {
            "NORMAL": 6,
            "POSITION": 5,
            "TANGENT": 7,
            "TEXCOORD_0": 8
          },
          "indices": 9,
          "material": 0,
          "mode": 4
        }
      ]
    },
    {
      "name": "Cube.077_Material.004_0",
      "primitives": [
        {
          "attributes": {
            "NORMAL": 11,
            "POSITION": 10,
            "TANGENT": 12,
            "TEXCOORD_0": 13
          },
          "indices": 14,
          "material": 0,
          "mode": 4
        }
      ]
    },
    {
      "name": "Cube.076_Material.004_0",
      "primitives": [
        {
          "attributes": {
            "NORMAL": 16,
            "POSITION": 15,
            "TANGENT": 17,
            "TEXCOORD_0": 18
          },
          "indices": 19,
          "material": 0,
          "mode": 4
        }
      ]
    },
    {
      "name": "Cube.075_Material.004_0",
      "primitives": [
        {
          "attributes": {
            "NORMAL": 21,
            "POSITION": 20,
            "TANGENT": 22,
            "TEXCOORD_0": 23
          },
          "indices": 24,
          "material": 0,
          "mode": 4
        }
      ]
    },
    {
      "name": "Cube.074_Material.004_0",
      "primitives": [
        {
          "attributes": {
            "NORMAL": 26,
            "POSITION": 25,
            "TANGENT": 27,
            "TEXCOORD_0": 28
          },
          "indices": 29,
          "material": 0,
          "mode": 4
        }
      ]
    },
    {
      "name": "Cube.073_Material.004_0",
      "primitives": [
        {
          "attributes": {
            "NORMAL": 31,
            "POSITION": 30,
            "TANGENT": 32,
            "TEXCOORD_0": 33
          },
          "indices": 34,
          "material": 0,
          "mode": 4
        }
      ]
    },
    {
      "name": "Cube.072_Material.004_0",
      "primitives": [
        {
          "attributes": {
            "NORMAL": 36,
            "POSITION": 35,
            "TANGENT": 37,
            "TEXCOORD_0": 38
          },
          "indices": 39,
          "material": 0,
          "mode": 4
        }
      ]
    },
    {
      "name": "Cube.071_Material.004_0",
      "primitives": [
        {
          "attributes": {
            "NORMAL": 41,
            "POSITION": 40,
            "TANGENT": 42,
            "TEXCOORD_0": 43
          },
          "indices": 44,
          "material": 0,
          "mode": 4
        }
      ]
    },
    {
      "name": "Cube.070_Material.004_0",
      "primitives": [
        {
          "attributes": {
            "NORMAL": 46,
            "POSITION": 45,
            "TANGENT": 47,
            "TEXCOORD_0": 48
          },
          "indices": 49,
          "material": 0,
          "mode": 4
        }
      ]
    },
    {
      "name": "Plane.021_Material.004_0",
      "primitives": [
        {
          "attributes": {
            "NORMAL": 51,
            "POSITION": 50,
            "TANGENT": 52,
            "TEXCOORD_0": 53
          },
          "indices": 54,
          "material": 0,
          "mode": 4
        }
      ]
    },
    {
      "name": "Plane.020_Material.004_0",
      "primitives": [
        {
          "attributes": {
            "NORMAL": 56,
            "POSITION": 55,
            "TANGENT": 57,
            "TEXCOORD_0": 58
          },
          "indices": 59,
          "material": 0,
          "mode": 4
        }
      ]
    },
    {
      "name": "Plane.019_Material.004_0",
      "primitives": [
        {
          "attributes": {
            "NORMAL": 61,
            "POSITION": 60,
            "TANGENT": 62,
            "TEXCOORD_0": 63
          },
          "indices": 64,
          "material": 0,
          "mode": 4
        }
      ]
    },
    {
      "name": "Plane.018_Material.004_0",
      "primitives": [
        {
          "attributes": {
            "NORMAL": 66,
            "POSITION": 65,
            "TANGENT": 67,
            "TEXCOORD_0": 68
          },
          "indices": 69,
          "material": 0,
          "mode": 4
        }
      ]
    }
  ],
  "nodes": [
    {
      "children": [
        1
      ],
      "matrix": [
        1.0,
        0.0,
        0.0,
        0.0,
        0.0,
        2.220446049250313e-16,
        -1.0,
        0.0,
        0.0,
        1.0,
        2.220446049250313e-16,
        0.0,
        0.0,
        0.0,
        0.0,
        1.0
      ],
      "name": "Sketchfab_model"
    },
    {
      "children": [
        2
      ],
      "matrix": [
        0.009999999776482582,
        0.0,
        0.0,
        0.0,
        0.0,
        0.0,
        0.009999999776482582,
        0.0,
        0.0,
        -0.009999999776482582,
        0.0,
        0.0,
        0.0,
        0.0,
        0.0,
        1.0
      ],
      "name": "A_CyberSword_Scene.fbx"
    },
    {
      "children": [
        3,
        5,
        7,
        9,
        11,
        13,
        15,
        17,
        19,
        21,
        23,
        25,
        27,
        29
      ],
      "name": "RootNode"
    },
    {
      "children": [
        4
      ],
      "matrix": [
        99.18518185772753,
        12.739689943225377,
        -5.380349069050716e-07,
        0.0,
        2.3218652001055773e-08,
        -4.404066134000573e-06,
        -99.99999999999989,
        0.0,
        -12.739689943225391,
        99.18518185772743,
        -4.371138984105016e-06,
        0.0,
        86.5821762084961,
        20.245534896850586,
        0.0,
        1.0
      ],
      "name": "Cube.079"
    },
    {
      "mesh": 0,
      "name": "Cube.079_Material.004_0"
    },
    {
      "children": [
        6
      ],
      "matrix": [
        99.18518185772753,
        12.739689943225377,
        -5.380349069050716e-07,
        0.0,
        2.3218652001055773e-08,
        -4.404066134000573e-06,
        -99.99999999999989,
        0.0,
        -12.739689943225391,
        99.18518185772743,
        -4.371138984105016e-06,
        0.0,
        151.10507202148438,
        21.207019805908203,
        0.0,
        1.0
      ],
      "name": "Cube.078"
    },
    {
      "mesh": 1,
      "name": "Cube.078_Material.004_0"
    },
    {
      "children": [
        8
      ],
      "matrix": [
        99.18518185772753,
        12.739689943225377,
        -5.380349069050716e-07,
        0.0,
        2.3218652001055773e-08,
        -4.404066134000573e-06,
        -99.99999999999989,
        0.0,
        -12.739689943225391,
        99.18518185772743,
        -4.371138984105016e-06,
        0.0,
        56.15392303466797,
        10.918610572814941,
        0.0,
        1.0
      ],
      "name": "Cube.077"
    },
    {
      "mesh": 2,
      "name": "Cube.077_Material.004_0"
    },
    {
      "children": [
        10
      ],
      "matrix": [
        99.18518185772753,
        12.739689943225377,
        -5.380349069050716e-07,
        0.0,
        2.3218652001055773e-08,
        -4.404066134000573e-06,
        -99.99999999999989,
        0.0,
        -12.739689943225391,
        99.18518185772743,
        -4.371138984105016e-06,
        0.0,
        33.522640228271484,
        3.215178966522217,
        4.838156542064098e-08,
        1.0
      ],
      "name": "Cube.076"
    },
    {
      "mesh": 3,
      "name": "Cube.076_Material.004_0"
    },
    {
      "children": [
        12
      ],
      "matrix": [
        99.18518185772753,
        12.739689943225377,
        -5.380349069050716e-07,
        0.0,
        2.3218652001055773e-08,
        -4.404066134000573e-06,
        -99.99999999999989,
        0.0,
        -12.739689943225391,
        99.18518185772743,
        -4.371138984105016e-06,
        0.0,
        -10.517023086547852,
        2.881401300430298,
        3.2432296848128317e-07,
        1.0
      ],
      "name": "Cube.075"
    },
    {
      "mesh": 4,
      "name": "Cube.075_Material.004_0"
    },
    {
      "children": [
        14
      ],
      "matrix": [
        99.18518185772753,
        12.739689943225377,
        -5.380349069050716e-07,
        0.0,
        2.3218652001055773e-08,
        -4.404066134000573e-06,
        -99.99999999999989,
        0.0,
        -12.739689943225391,
        99.18518185772743,
        -4.371138984105016e-06,
        0.0,
        -17.748544692993164,
        2.2745065689086914,
        3.6722695995194954e-07,
        1.0
      ],
      "name": "Cube.074"
    },
    {
      "mesh": 5,
      "name": "Cube.074_Material.004_0"
    },
    {
      "children": [
        16
      ],
      "matrix": [
        99.18518185772753,
        12.739689943225377,
        -5.380349069050716e-07,
        0.0,
        2.3218652001055773e-08,
        -4.404066134000573e-06,
        -99.99999999999989,
        0.0,
        -12.739689943225391,
        99.18518185772743,
        -4.371138984105016e-06,
        0.0,
        -111.68153381347656,
        -3.4261844158172607,
        1.2153712987128529e-06,
        1.0
      ],
      "name": "Cube.073"
    },
    {
      "mesh": 6,
      "name": "Cube.073_Material.004_0"
    },
    {
      "children": [
        18
      ],
      "matrix": [
        99.18518185772753,
        12.739689943225377,
        -5.380349069050716e-07,
        0.0,
        2.3218652001055773e-08,
        -4.404066134000573e-06,
        -99.99999999999989,
        0.0,
        -12.739689943225391,
        99.18518185772743,
        -4.371138984105016e-06,
        0.0,
        -119.061279296875,
        -3.6587305068969727,
        1.3106994174449937e-06,
        1.0
      ],
      "name": "Cube.072"
    },
    {
      "mesh": 7,
      "name": "Cube.072_Material.004_0"
    },
    {
      "children": [
        20
      ],
      "matrix": [
        99.18518185772753,
        12.739689943225377,
        -5.380349069050716e-07,
        0.0,
        2.3218652001055773e-08,
        -4.404066134000573e-06,
        -99.99999999999989,
        0.0,
        -12.739689943225391,
        99.18518185772743,
        -4.371138984105016e-06,
        0.0,
        -223.0381317138672,
        -3.807169198989868,
        3.070678985750419e-06,
        1.0
      ],
      "name": "Cube.071"
    },
    {
      "mesh": 8,
      "name": "Cube.071_Material.004_0"
    },
    {
      "children": [
        22
      ],
      "matrix": [
        99.18518185772753,
        12.739689943225377,
        -5.380349069050716e-07,
        0.0,
        2.3218652001055773e-08,
        -4.404066134000573e-06,
        -99.99999999999989,
        0.0,
        -12.739689943225391,
        99.18518185772743,
        -4.371138984105016e-06,
        0.0,
        -228.06362915039063,
        -0.6814889907836914,
        3.5732416563405422e-06,
        1.0
      ],
      "name": "Cube.070"
    },
    {
      "mesh": 9,
      "name": "Cube.070_Material.004_0"
    },
    {
      "children": [
        24
      ],
      "matrix": [
        99.18518185772753,
        12.739689943225377,
        -5.380349069050716e-07,
        0.0,
        2.3218652001055773e-08,
        -4.404066134000573e-06,
        -99.99999999999989,
        0.0,
        -12.739689943225391,
        99.18518185772743,
        -4.371138984105016e-06,
        0.0,
        44.88630294799805,
        15.706473350524902,
        1.185011863708496,
        1.0
      ],
      "name": "Plane.021"
    },
    {
      "mesh": 10,
      "name": "Plane.021_Material.004_0"
    },
    {
      "children": [
        26
      ],
      "matrix": [
        99.18518185772753,
        12.739689943225377,
        -5.380349069050716e-07,
        0.0,
        2.3218652001055773e-08,
        -4.404066134000573e-06,
        -99.99999999999989,
        0.0,
        -12.739689943225391,
        99.18518185772743,
        -4.371138984105016e-06,
        0.0,
        44.88630294799805,
        15.706473350524902,
        1.5251320600509644,
        1.0
      ],
      "name": "Plane.020"
    },
    {
      "mesh": 11,
      "name": "Plane.020_Material.004_0"
    },
    {
      "children": [
        28
      ],
      "matrix": [
        99.18518185772753,
        12.739689943225377,
        -5.380349069050716e-07,
        0.0,
        2.3218652001055773e-08,
        -4.404066134000573e-06,
        -99.99999999999989,
        0.0,
        -12.739689943225391,
        99.18518185772743,
        -4.371138984105016e-06,
        0.0,
        44.88627243041992,
        15.706470489501953,
        -1.1850000619888306,
        1.0
      ],
      "name": "Plane.019"
    },
    {
      "mesh": 12,
      "name": "Plane.019_Material.004_0"
    },
    {
      "children": [
        30
      ],
      "matrix": [
        99.18518185772753,
        12.739689943225377,
        -5.380349069050716e-07,
        0.0,
        2.3218652001055773e-08,
        -4.404066134000573e-06,
        -99.99999999999989,
        0.0,
        -12.739689943225391,
        99.18518185772743,
        -4.371138984105016e-06,
        0.0,
        44.88630294799805,
        15.706473350524902,
        -1.5250999927520752,
        1.0
      ],
      "name": "Plane.018"
    },
    {
      "mesh": 13,
      "name": "Plane.018_Material.004_0"
    }
  ],
  "samplers": [
    {
      "magFilter": 9729,
      "minFilter": 9987,
      "wrapS": 10497,
      "wrapT": 10497
    }
  ],
  "scene": 0,
  "scenes": [
    {
      "name": "Sketchfab_Scene",
      "nodes": [
        0
      ]
    }
  ],
  "textures": [
    {
      "sampler": 0,
      "source": 0
    },
    {
      "sampler": 0,
      "source": 1
    },
    {
      "sampler": 0,
      "source": 2
    },
    {
      "sampler": 0,
      "source": 3
    }
  ]
}
