{
  "accessors": [
    {
      "bufferView": 2,
      "componentType": 5126,
      "count": 230,
      "max": [
        0.9732675552368164,
        0.6749999523162842,
        0.9732675552368164
      ],
      "min": [
        -0.9732675552368164,
        -0.7349117994308472,
        -0.9732675552368164
      ],
      "type": "VEC3"
    },
    {
      "bufferView": 2,
      "byteOffset": 2760,
      "componentType": 5126,
      "count": 230,
      "max": [
        0.9994995594024658,
        1.0,
        0.9994995594024658
      ],
      "min": [
        -0.9994995594024658,
        -0.8435617685317993,
        -0.9994995594024658
      ],
      "type": "VEC3"
    },
    {
      "bufferView": 1,
      "componentType": 5126,
      "count": 230,
      "max": [
        0.8203125,
        1.0
      ],
      "min": [
        -0.0,
        0.140625
      ],
      "type": "VEC2"
    },
    {
      "bufferView": 0,
      "componentType": 5125,
      "count": 504,
      "type": "SCALAR"
    },
    {
      "bufferView": 2,
      "byteOffset": 5520,
      "componentType": 5126,
      "count": 172,
      "max": [
        2.33632755279541,
        1.7888123989105225,
        1.237170934677124
      ],
      "min": [
        -1.7856032848358154,
        -2.0436747074127197,
        -3.8166348934173584
      ],
      "type": "VEC3"
    },
    {
      "bufferView": 2,
      "byteOffset": 7584,
      "componentType": 5126,
      "count": 172,
      "max": [
        0.4949393570423126,
        1.0,
        0.9565277695655823
      ],
      "min": [
        -0.9757061004638672,
        -0.7135265469551086,
        -0.9940530061721802
      ],
      "type": "VEC3"
    },
    {
      "bufferView": 1,
      "byteOffset": 1840,
      "componentType": 5126,
      "count": 172,
      "max": [
        1.0,
        0.96875
      ],
      "min": [
        0.4609374403953552,
        0.0078125
      ],
      "type": "VEC2"
    },
    {
      "bufferView": 0,
      "byteOffset": 2016,
      "componentType": 5125,
      "count": 258,
      "type": "SCALAR"
    }
  ],
  "asset": {
    "extras": {
      "author": "AtskaHeart (https://sketchfab.com/atskaheart)",
      "license": "CC-BY-4.0 (http://creativecommons.org/licenses/by/4.0/)",
      "source": "https://sketchfab.com/3d-models/pixel-flower-pot-f80e4241bebe4a00ad57b0fb8d89b671",
      "title": "Pixel Flower Pot"
    },
    "generator": "Sketchfab-12.65.0",
    "version": "2.0"
  },
  "bufferViews": [
    {
      "buffer": 0,
      "byteLength": 3048,
      "name": "floatBufferViews",
      "target": 34963
    },
    {
      "buffer": 0,
      "byteLength": 3216,
      "byteOffset": 3048,
      "byteStride": 8,
      "name": "floatBufferViews",
      "target": 34962
    },
    {
      "buffer": 0,
      "byteLength": 9648,
      "byteOffset": 6264,
      "byteStride": 12,
      "name": "floatBufferViews",
      "target": 34962
    }
  ],
  "buffers": [
    {
      "byteLength": 15912,
      "uri": "scene.bin"
    }
  ],
  "images": [
    {
      "uri": "textures/MainText_baseColor.png"
    }
  ],
  "materials": [
    {
      "alphaMode": "BLEND",
      "doubleSided": true,
      "name": "MainText",
      "pbrMetallicRoughness": {
        "baseColorTexture": {
          "index": 0
        },
        "metallicFactor": 0.0,
        "roughnessFactor": 0.0
      }
    }
  ],
  "meshes": [
    {
      "name": "Object_0",
      "primitives": [
        {
          "attributes": {
            "NORMAL": 1,
            "POSITION": 0,
            "TEXCOORD_0": 2
          },
          "indices": 3,
          "material": 0,
          "mode": 4
        }
      ]
    },
    {
      "name": "Object_1",
      "primitives": [
        {
          "attributes": {
            "NORMAL": 5,
            "POSITION": 4,
            "TEXCOORD_0": 6
          },
          "indices": 7,
          "material": 0,
          "mode": 4
        }
      ]
    }
  ],
  "nodes": [
    {
      "children": [
        1
      ],
      "matrix": [
        1.0,
        0.0,
        0.0,
        0.0,
        0.0,
        2.220446049250313e-16,
        -1.0,
        0.0,
        0.0,
        1.0,
        2.220446049250313e-16,
        0.0,
        0.0,
        0.0,
        0.0,
        1.0
      ],
      "name": "Sketchfab_model"
    },
    {
      "children": [
        2
      ],
      "name": "root"
    },
    {
      "children": [
        3,
        5
      ],
      "matrix": [
        1.0,
        0.0,
        0.0,
        0.0,
        0.0,
        2.220446049250313e-16,
        1.0,
        0.0,
        0.0,
        -1.0,
        2.220446049250313e-16,
        0.0,
        0.0,
        0.0,
        0.0,
        1.0
      ],
      "name": "GLTF_SceneRootNode"
    },
    {
      "children": [
        4
      ],
      "matrix": [
        1.0,
        0.0,
        0.0,
        0.0,
        0.0,
        1.0,
        0.0,
        0.0,
        0.0,
        0.0,
        1.0,
        0.0,
        0.0,
        0.699999988079071,
        0.0,
        1.0
      ],
      "name": "pot_0"
    },
    {
      "mesh": 0,
      "name": "Object_4"
    },
    {
      "children": [
        6
      ],
      "matrix": [
        0.40944626927375793,
        0.0,
        0.0,
        0.0,
        0.0,
        -0.026966947061167847,
        0.4085572258368469,
        0.0,
        0.0,
        -0.4085572258368469,
        -0.026966947061167847,
        0.0,
        0.06526302546262741,
        1.6116911172866821,
        -0.02120223268866539,
        1.0
      ],
      "name": "plant_1"
    },
    {
      "mesh": 1,
      "name": "Object_6"
    }
  ],
  "samplers": [
    {
      "magFilter": 9728,
      "minFilter": 9986,
      "wrapS": 10497,
      "wrapT": 10497
    }
  ],
  "scene": 0,
  "scenes": [
    {
      "name": "Sketchfab_Scene",
      "nodes": [
        0
      ]
    }
  ],
  "textures": [
    {
      "sampler": 0,
      "source": 0
    }
  ]
}
