{
  "accessors": [
    {
      "bufferView": 2,
      "componentType": 5126,
      "count": 39127,
      "max": [
        0.8672634363174438,
        2.7310779094696045,
        1.1995702981948853
      ],
      "min": [
        -1.1278798580169678,
        -0.20451021194458008,
        -1.5288617610931396
      ],
      "type": "VEC3"
    },
    {
      "bufferView": 2,
      "byteOffset": 469524,
      "componentType": 5126,
      "count": 39127,
      "max": [
        0.9999740123748779,
        1.0,
        0.9999905824661255
      ],
      "min": [
        -0.999972939491272,
        -0.999994158744812,
        -0.9998419284820557
      ],
      "type": "VEC3"
    },
    {
      "bufferView": 1,
      "componentType": 5126,
      "count": 39127,
      "max": [
        0.9985615015029907,
        1.002728819847107
      ],
      "min": [
        0.0046405792236328125,
        0.0019942522048950195
      ],
      "type": "VEC2"
    },
    {
      "bufferView": 0,
      "componentType": 5125,
      "count": 185376,
      "type": "SCALAR"
    },
    {
      "bufferView": 2,
      "byteOffset": 939048,
      "componentType": 5126,
      "count": 39049,
      "max": [
        0.8714083433151245,
        2.737497091293335,
        1.204496145248413
      ],
      "min": [
        -1.1303273439407349,
        -0.20647390186786652,
        -1.5361276865005493
      ],
      "type": "VEC3"
    },
    {
      "bufferView": 2,
      "byteOffset": 1407636,
      "componentType": 5126,
      "count": 39049,
      "max": [
        0.9999935626983643,
        0.9999712705612183,
        0.9994184970855713
      ],
      "min": [
        -0.9999783039093018,
        -0.9999998807907104,
        -0.9999802112579346
      ],
      "type": "VEC3"
    },
    {
      "bufferView": 1,
      "byteOffset": 313016,
      "componentType": 5126,
      "count": 39049,
      "max": [
        0.9985615015029907,
        1.002728819847107
      ],
      "min": [
        0.0046405792236328125,
        0.0019942522048950195
      ],
      "type": "VEC2"
    },
    {
      "bufferView": 0,
      "byteOffset": 741504,
      "componentType": 5125,
      "count": 185376,
      "type": "SCALAR"
    },
    {
      "bufferView": 2,
      "byteOffset": 1876224,
      "componentType": 5126,
      "count": 4991,
      "max": [
        0.5691685080528259,
        0.0842846930027008,
        0.5048043131828308
      ],
      "min": [
        -0.5722068548202515,
        -0.4164099395275116,
        -0.5017563104629517
      ],
      "type": "VEC3"
    },
    {
      "bufferView": 2,
      "byteOffset": 1936116,
      "componentType": 5126,
      "count": 4991,
      "max": [
        0.9999620914459229,
        0.9999091625213623,
        0.9997234344482422
      ],
      "min": [
        -0.9992378950119019,
        -0.9998739957809448,
        -0.9999125003814697
      ],
      "type": "VEC3"
    },
    {
      "bufferView": 1,
      "byteOffset": 625408,
      "componentType": 5126,
      "count": 4991,
      "max": [
        1.0000001192092896,
        0.9776575565338135
      ],
      "min": [
        0.0,
        0.0
      ],
      "type": "VEC2"
    },
    {
      "bufferView": 0,
      "byteOffset": 1483008,
      "componentType": 5125,
      "count": 22176,
      "type": "SCALAR"
    },
    {
      "bufferView": 2,
      "byteOffset": 1996008,
      "componentType": 5126,
      "count": 4996,
      "max": [
        0.5713989734649658,
        0.08907396346330643,
        0.506105363368988
      ],
      "min": [
        -0.574763834476471,
        -0.42276155948638916,
        -0.5022486448287964
      ],
      "type": "VEC3"
    },
    {
      "bufferView": 2,
      "byteOffset": 2055960,
      "componentType": 5126,
      "count": 4996,
      "max": [
        0.9984356164932251,
        0.9999480247497559,
        0.9990046620368958
      ],
      "min": [
        -0.999692440032959,
        -0.9998319149017334,
        -0.9992598295211792
      ],
      "type": "VEC3"
    },
    {
      "bufferView": 1,
      "byteOffset": 665336,
      "componentType": 5126,
      "count": 4996,
      "max": [
        1.0000001192092896,
        0.9776575565338135
      ],
      "min": [
        0.0,
        0.0
      ],
      "type": "VEC2"
    },
    {
      "bufferView": 0,
      "byteOffset": 1571712,
      "componentType": 5125,
      "count": 22176,
      "type": "SCALAR"
    },
    {
      "bufferView": 2,
      "byteOffset": 2115912,
      "componentType": 5126,
      "count": 591,
      "max": [
        0.02507813461124897,
        0.8825316429138184,
        0.016181539744138718
      ],
      "min": [
        -0.2503786087036133,
        -0.5625055432319641,
        -0.5842090249061584
      ],
      "type": "VEC3"
    },
    {
      "bufferView": 2,
      "byteOffset": 2123004,
      "componentType": 5126,
      "count": 591,
      "max": [
        0.9998037815093994,
        0.9584780335426331,
        0.9940425753593445
      ],
      "min": [
        -0.9998596906661987,
        -0.9928984045982361,
        -0.9991823434829712
      ],
      "type": "VEC3"
    },
    {
      "bufferView": 1,
      "byteOffset": 705304,
      "componentType": 5126,
      "count": 591,
      "max": [
        0.10030622780323029,
        0.5792307257652283
      ],
      "min": [
        0.07245633751153946,
        0.5420975089073181
      ],
      "type": "VEC2"
    },
    {
      "bufferView": 0,
      "byteOffset": 1660416,
      "componentType": 5125,
      "count": 2448,
      "type": "SCALAR"
    },
    {
      "bufferView": 2,
      "byteOffset": 2130096,
      "componentType": 5126,
      "count": 788,
      "max": [
        0.11697761714458466,
        1.2965843677520752,
        0.17787176370620728
      ],
      "min": [
        -0.20308193564414978,
        -0.039025161415338516,
        -0.3478662371635437
      ],
      "type": "VEC3"
    },
    {
      "bufferView": 2,
      "byteOffset": 2139552,
      "componentType": 5126,
      "count": 788,
      "max": [
        0.9991987943649292,
        0.9975376725196838,
        0.9985368847846985
      ],
      "min": [
        -0.9998073577880859,
        -0.9906876683235168,
        -0.9998769760131836
      ],
      "type": "VEC3"
    },
    {
      "bufferView": 1,
      "byteOffset": 710032,
      "componentType": 5126,
      "count": 788,
      "max": [
        0.4410005807876587,
        0.6492840647697449
      ],
      "min": [
        0.43215644359588623,
        0.637491762638092
      ],
      "type": "VEC2"
    },
    {
      "bufferView": 0,
      "byteOffset": 1670208,
      "componentType": 5125,
      "count": 3264,
      "type": "SCALAR"
    },
    {
      "bufferView": 2,
      "byteOffset": 2149008,
      "componentType": 5126,
      "count": 1949,
      "max": [
        0.8578027486801147,
        1.6609644889831543,
        0.43882322311401367
      ],
      "min": [
        -0.41431453824043274,
        -0.4599793553352356,
        -1.9282910823822021
      ],
      "type": "VEC3"
    },
    {
      "bufferView": 2,
      "byteOffset": 2172396,
      "componentType": 5126,
      "count": 1949,
      "max": [
        0.9998259544372559,
        0.9804150462150574,
        0.9996453523635864
      ],
      "min": [
        -0.9994264841079712,
        -0.9822030663490295,
        -0.9997066259384155
      ],
      "type": "VEC3"
    },
    {
      "bufferView": 1,
      "byteOffset": 716336,
      "componentType": 5126,
      "count": 1949,
      "max": [
        0.6374045610427856,
        0.5326077938079834
      ],
      "min": [
        0.10052989423274994,
        0.11726877838373184
      ],
      "type": "VEC2"
    },
    {
      "bufferView": 0,
      "byteOffset": 1683264,
      "componentType": 5125,
      "count": 8160,
      "type": "SCALAR"
    },
    {
      "bufferView": 2,
      "byteOffset": 2195784,
      "componentType": 5126,
      "count": 1960,
      "max": [
        0.6273581981658936,
        0.5677841901779175,
        0.25456947088241577
      ],
      "min": [
        -0.30587056279182434,
        -0.09321372210979462,
        -0.5214312076568604
      ],
      "type": "VEC3"
    },
    {
      "bufferView": 2,
      "byteOffset": 2219304,
      "componentType": 5126,
      "count": 1960,
      "max": [
        0.9996167421340942,
        0.9959486126899719,
        0.9994325637817383
      ],
      "min": [
        -0.9993258714675903,
        -0.998447835445404,
        -0.9999394416809082
      ],
      "type": "VEC3"
    },
    {
      "bufferView": 1,
      "byteOffset": 731928,
      "componentType": 5126,
      "count": 1960,
      "max": [
        0.9890340566635132,
        0.9651764035224915
      ],
      "min": [
        0.04371025785803795,
        0.005920853465795517
      ],
      "type": "VEC2"
    },
    {
      "bufferView": 0,
      "byteOffset": 1715904,
      "componentType": 5125,
      "count": 8160,
      "type": "SCALAR"
    },
    {
      "bufferView": 2,
      "byteOffset": 2242824,
      "componentType": 5126,
      "count": 780,
      "max": [
        0.04394788295030594,
        0.872366726398468,
        0.15588977932929993
      ],
      "min": [
        -0.30123186111450195,
        -0.5225804448127747,
        -0.34505823254585266
      ],
      "type": "VEC3"
    },
    {
      "bufferView": 2,
      "byteOffset": 2252184,
      "componentType": 5126,
      "count": 780,
      "max": [
        0.9998129606246948,
        0.9868155717849731,
        0.9997364282608032
      ],
      "min": [
        -0.9997525215148926,
        -0.9823426604270935,
        -0.999573826789856
      ],
      "type": "VEC3"
    },
    {
      "bufferView": 1,
      "byteOffset": 747608,
      "componentType": 5126,
      "count": 780,
      "max": [
        0.6211230754852295,
        0.6394377946853638
      ],
      "min": [
        0.6105035543441772,
        0.6252782940864563
      ],
      "type": "VEC2"
    },
    {
      "bufferView": 0,
      "byteOffset": 1748544,
      "componentType": 5125,
      "count": 3264,
      "type": "SCALAR"
    },
    {
      "bufferView": 2,
      "byteOffset": 2261544,
      "componentType": 5126,
      "count": 1371,
      "max": [
        0.8677518963813782,
        1.3753992319107056,
        0.3991539478302002
      ],
      "min": [
        -0.6311872005462646,
        -0.03176315128803253,
        -0.7190459966659546
      ],
      "type": "VEC3"
    },
    {
      "bufferView": 2,
      "byteOffset": 2277996,
      "componentType": 5126,
      "count": 1371,
      "max": [
        0.9999555349349976,
        0.9927436709403992,
        0.9992467164993286
      ],
      "min": [
        -0.9996093511581421,
        -0.9835856556892395,
        -0.9991428852081299
      ],
      "type": "VEC3"
    },
    {
      "bufferView": 1,
      "byteOffset": 753848,
      "componentType": 5126,
      "count": 1371,
      "max": [
        0.9767908453941345,
        1.0000001192092896
      ],
      "min": [
        0.1250000149011612,
        0.0
      ],
      "type": "VEC2"
    },
    {
      "bufferView": 0,
      "byteOffset": 1761600,
      "componentType": 5125,
      "count": 5712,
      "type": "SCALAR"
    },
    {
      "bufferView": 2,
      "byteOffset": 2294448,
      "componentType": 5126,
      "count": 1375,
      "max": [
        0.24106624722480774,
        1.2854111194610596,
        0.2369219809770584
      ],
      "min": [
        -0.5019546747207642,
        -0.12503017485141754,
        -0.919658362865448
      ],
      "type": "VEC3"
    },
    {
      "bufferView": 2,
      "byteOffset": 2310948,
      "componentType": 5126,
      "count": 1375,
      "max": [
        0.9999897480010986,
        0.9915626049041748,
        0.9989697337150574
      ],
      "min": [
        -0.9999690055847168,
        -0.9879363775253296,
        -0.9979625344276428
      ],
      "type": "VEC3"
    },
    {
      "bufferView": 1,
      "byteOffset": 764816,
      "componentType": 5126,
      "count": 1375,
      "max": [
        0.8785802125930786,
        0.7455725073814392
      ],
      "min": [
        0.5113668441772461,
        0.5166972279548645
      ],
      "type": "VEC2"
    },
    {
      "bufferView": 0,
      "byteOffset": 1784448,
      "componentType": 5125,
      "count": 5712,
      "type": "SCALAR"
    },
    {
      "bufferView": 2,
      "byteOffset": 2327448,
      "componentType": 5126,
      "count": 1358,
      "max": [
        0.5046964287757874,
        2.1567323207855225,
        0.42317742109298706
      ],
      "min": [
        -0.4223518967628479,
        0.21384279429912567,
        -0.4724940061569214
      ],
      "type": "VEC3"
    },
    {
      "bufferView": 2,
      "byteOffset": 2343744,
      "componentType": 5126,
      "count": 1358,
      "max": [
        0.9998617172241211,
        0.9975296854972839,
        0.9991050958633423
      ],
      "min": [
        -0.9988194108009338,
        -0.9782199263572693,
        -0.9976434707641602
      ],
      "type": "VEC3"
    },
    {
      "bufferView": 1,
      "byteOffset": 775816,
      "componentType": 5126,
      "count": 1358,
      "max": [
        0.5852758884429932,
        0.5925607085227966
      ],
      "min": [
        0.5746567845344543,
        0.5784018039703369
      ],
      "type": "VEC2"
    },
    {
      "bufferView": 0,
      "byteOffset": 1807296,
      "componentType": 5125,
      "count": 5712,
      "type": "SCALAR"
    },
    {
      "bufferView": 2,
      "byteOffset": 2360040,
      "componentType": 5126,
      "count": 197,
      "max": [
        0.2351645529270172,
        0.5971486568450928,
        -0.6541073322296143
      ],
      "min": [
        0.21817836165428162,
        0.4634069800376892,
        -0.7052955031394958
      ],
      "type": "VEC3"
    },
    {
      "bufferView": 2,
      "byteOffset": 2362404,
      "componentType": 5126,
      "count": 197,
      "max": [
        0.9943063259124756,
        0.8680859208106995,
        0.9914660453796387
      ],
      "min": [
        -0.9996732473373413,
        -0.9707432985305786,
        -0.972007691860199
      ],
      "type": "VEC3"
    },
    {
      "bufferView": 1,
      "byteOffset": 786680,
      "componentType": 5126,
      "count": 197,
      "max": [
        0.6991187334060669,
        0.4031478762626648
      ],
      "min": [
        0.6700617074966431,
        0.3644052743911743
      ],
      "type": "VEC2"
    },
    {
      "bufferView": 0,
      "byteOffset": 1830144,
      "componentType": 5125,
      "count": 816,
      "type": "SCALAR"
    }
  ],
  "asset": {
    "extras": {
      "author": "Omar Faruq Tawsif (https://sketchfab.com/omarfaruqtawsif32)",
      "license": "CC-BY-4.0 (http://creativecommons.org/licenses/by/4.0/)",
      "source": "https://sketchfab.com/3d-models/vitamin-bomb-301a6b7a8bc2487fa5e10465b46b3184",
      "title": "Vitamin bomb!"
    },
    "generator": "Sketchfab-12.73.0",
    "version": "2.0"
  },
  "bufferViews": [
    {
      "buffer": 0,
      "byteLength": 1833408,
      "name": "floatBufferViews",
      "target": 34963
    },
    {
      "buffer": 0,
      "byteLength": 788256,
      "byteOffset": 1833408,
      "byteStride": 8,
      "name": "floatBufferViews",
      "target": 34962
    },
    {
      "buffer": 0,
      "byteLength": 2364768,
      "byteOffset": 2621664,
      "byteStride": 12,
      "name": "floatBufferViews",
      "target": 34962
    }
  ],
  "buffers": [
    {
      "byteLength": 4986432,
      "uri": "scene.bin"
    }
  ],
  "extensionsUsed": [
    "KHR_materials_unlit"
  ],
  "images": [
    {
      "uri": "textures/shadeless_baseColor.png"
    },
    {
      "uri": "textures/Material.003_baseColor.png"
    }
  ],
  "materials": [
    {
      "doubleSided": true,
      "extensions": {
        "KHR_materials_unlit": {}
      },
      "name": "shadeless",
      "pbrMetallicRoughness": {
        "baseColorTexture": {
          "index": 0
        },
        "metallicFactor": 0.0
      }
    },
    {
      "extensions": {
        "KHR_materials_unlit": {}
      },
      "name": "lineart",
      "pbrMetallicRoughness": {
        "baseColorFactor": [
          0.34594555022836243,
          0.00828810548177022,
          0.00828810548177022,
          1.0
        ],
        "metallicFactor": 0.0
      }
    },
    {
      "doubleSided": true,
      "extensions": {
        "KHR_materials_unlit": {}
      },
      "name": "Material.003",
      "pbrMetallicRoughness": {
        "baseColorTexture": {
          "index": 1
        },
        "metallicFactor": 0.0
      }
    },
    {
      "extensions": {
        "KHR_materials_unlit": {}
      },
      "name": "lineart.001",
      "pbrMetallicRoughness": {
        "baseColorFactor": [
          0.05603240000000003,
          0.08399039999999999,
          0.008247629999999999,
          1.0
        ],
        "metallicFactor": 0.0
      }
    },
    {
      "doubleSided": true,
      "extensions": {
        "KHR_materials_unlit": {}
      },
      "name": "Material.002",
      "pbrMetallicRoughness": {
        "baseColorTexture": {
          "index": 0
        },
        "metallicFactor": 0.0
      }
    }
  ],
  "meshes": [
    {
      "name": "Object_0",
      "primitives": [
        {
          "attributes": {
            "NORMAL": 1,
            "POSITION": 0,
            "TEXCOORD_0": 2
          },
          "indices": 3,
          "material": 0,
          "mode": 4
        }
      ]
    },
    {
      "name": "Object_1",
      "primitives": [
        {
          "attributes": {
            "NORMAL": 5,
            "POSITION": 4,
            "TEXCOORD_0": 6
          },
          "indices": 7,
          "material": 1,
          "mode": 4
        }
      ]
    },
    {
      "name": "Object_2",
      "primitives": [
        {
          "attributes": {
            "NORMAL": 9,
            "POSITION": 8,
            "TEXCOORD_0": 10
          },
          "indices": 11,
          "material": 2,
          "mode": 4
        }
      ]
    },
    {
      "name": "Object_3",
      "primitives": [
        {
          "attributes": {
            "NORMAL": 13,
            "POSITION": 12,
            "TEXCOORD_0": 14
          },
          "indices": 15,
          "material": 3,
          "mode": 4
        }
      ]
    },
    {
      "name": "Object_4",
      "primitives": [
        {
          "attributes": {
            "NORMAL": 17,
            "POSITION": 16,
            "TEXCOORD_0": 18
          },
          "indices": 19,
          "material": 4,
          "mode": 4
        }
      ]
    },
    {
      "name": "Object_5",
      "primitives": [
        {
          "attributes": {
            "NORMAL": 21,
            "POSITION": 20,
            "TEXCOORD_0": 22
          },
          "indices": 23,
          "material": 4,
          "mode": 4
        }
      ]
    },
    {
      "name": "Object_6",
      "primitives": [
        {
          "attributes": {
            "NORMAL": 25,
            "POSITION": 24,
            "TEXCOORD_0": 26
          },
          "indices": 27,
          "material": 4,
          "mode": 4
        }
      ]
    },
    {
      "name": "Object_7",
      "primitives": [
        {
          "attributes": {
            "NORMAL": 29,
            "POSITION": 28,
            "TEXCOORD_0": 30
          },
          "indices": 31,
          "material": 2,
          "mode": 4
        }
      ]
    },
    {
      "name": "Object_8",
      "primitives": [
        {
          "attributes": {
            "NORMAL": 33,
            "POSITION": 32,
            "TEXCOORD_0": 34
          },
          "indices": 35,
          "material": 4,
          "mode": 4
        }
      ]
    },
    {
      "name": "Object_9",
      "primitives": [
        {
          "attributes": {
            "NORMAL": 37,
            "POSITION": 36,
            "TEXCOORD_0": 38
          },
          "indices": 39,
          "material": 4,
          "mode": 4
        }
      ]
    },
    {
      "name": "Object_10",
      "primitives": [
        {
          "attributes": {
            "NORMAL": 41,
            "POSITION": 40,
            "TEXCOORD_0": 42
          },
          "indices": 43,
          "material": 4,
          "mode": 4
        }
      ]
    },
    {
      "name": "Object_11",
      "primitives": [
        {
          "attributes": {
            "NORMAL": 45,
            "POSITION": 44,
            "TEXCOORD_0": 46
          },
          "indices": 47,
          "material": 4,
          "mode": 4
        }
      ]
    },
    {
      "name": "Object_12",
      "primitives": [
        {
          "attributes": {
            "NORMAL": 49,
            "POSITION": 48,
            "TEXCOORD_0": 50
          },
          "indices": 51,
          "material": 2,
          "mode": 4
        }
      ]
    }
  ],
  "nodes": [
    {
      "children": [
        1
      ],
      "matrix": [
        1.0,
        0.0,
        0.0,
        0.0,
        0.0,
        2.220446049250313e-16,
        -1.0,
        0.0,
        0.0,
        1.0,
        2.220446049250313e-16,
        0.0,
        0.0,
        0.0,
        0.0,
        1.0
      ],
      "name": "Sketchfab_model"
    },
    {
      "children": [
        2
      ],
      "name": "root"
    },
    {
      "children": [
        3,
        6,
        9,
        11,
        13,
        15,
        17,
        19,
        21,
        23,
        25
      ],
      "matrix": [
        1.0,
        0.0,
        0.0,
        0.0,
        0.0,
        2.220446049250313e-16,
        1.0,
        0.0,
        0.0,
        -1.0,
        2.220446049250313e-16,
        0.0,
        0.0,
        0.0,
        0.0,
        1.0
      ],
      "name": "GLTF_SceneRootNode"
    },
    {
      "children": [
        4,
        5
      ],
      "matrix": [
        0.9983598149961797,
        -0.00606663562419721,
        0.056928689893561084,
        0.0,
        0.00800083231141869,
        0.9993962664255335,
        -0.03380960421283626,
        0.0,
        -0.05668920958276435,
        0.034209627108568404,
        0.9978056097907919,
        0.0,
        -0.05669870972633362,
        -0.8402019739151001,
        0.3518194854259491,
        1.0
      ],
      "name": "Sphere.002_0"
    },
    {
      "mesh": 0,
      "name": "Object_4"
    },
    {
      "mesh": 1,
      "name": "Object_5"
    },
    {
      "children": [
        7,
        8
      ],
      "matrix": [
        0.8749128495485474,
        -0.3582798193220997,
        0.3258267588172656,
        0.0,
        0.38702078343100726,
        0.9217123576331306,
        -0.02571464522067752,
        0.0,
        -0.29110551160582704,
        0.14859980098539688,
        0.9450797216424708,
        0.0,
        0.04879871383309364,
        2.370763063430786,
        0.09205657243728638,
        1.0
      ],
      "name": "Cylinder_1"
    },
    {
      "mesh": 2,
      "name": "Object_7"
    },
    {
      "mesh": 3,
      "name": "Object_8"
    },
    {
      "children": [
        10
      ],
      "matrix": [
        0.9839383040144248,
        -0.17419131162038423,
        0.039023080980203385,
        0.0,
        0.1754488578213129,
        0.9033781526788511,
        -0.3913126774738369,
        0.0,
        0.0329106697351187,
        0.39187408719959604,
        0.9194300340967057,
        0.0,
        -1.1799135208129883,
        0.5633310675621033,
        0.678817868232727,
        1.0
      ],
      "name": "Cube_2"
    },
    {
      "mesh": 4,
      "name": "Object_10"
    },
    {
      "children": [
        12
      ],
      "matrix": [
        0.7292816106104436,
        -0.1061191002901683,
        0.6759342194171283,
        0.0,
        0.24640471363181443,
        0.962347781072911,
        -0.11476700468369841,
        0.0,
        -0.638304824927292,
        0.25025084379008544,
        0.7279707862661038,
        0.0,
        -1.358718991279602,
        -0.07960023730993271,
        -0.31169331073760986,
        1.0
      ],
      "name": "Cube.001_3"
    },
    {
      "mesh": 5,
      "name": "Object_12"
    },
    {
      "children": [
        14
      ],
      "matrix": [
        -0.3371079608087329,
        0.041051948837763405,
        0.6923754692572123,
        0.0,
        0.21397008733920153,
        0.7384307662903117,
        0.0603964173136667,
        0.0,
        -0.659761973543343,
        0.21850779243723562,
        -0.33418454943869647,
        0.0,
        -0.5034832954406738,
        -0.26640602946281433,
        -1.3732645511627197,
        1.0
      ],
      "name": "Cube.002_5"
    },
    {
      "mesh": 6,
      "name": "Object_14"
    },
    {
      "children": [
        16
      ],
      "matrix": [
        0.7292816106104436,
        -0.1061191002901683,
        0.6759342194171283,
        0.0,
        0.24640471363181443,
        0.962347781072911,
        -0.11476700468369841,
        0.0,
        -0.638304824927292,
        0.25025084379008544,
        0.7279707862661038,
        0.0,
        -0.3201240003108978,
        1.7662233114242554,
        0.173404261469841,
        1.0
      ],
      "name": "Cube.003_7"
    },
    {
      "mesh": 7,
      "name": "Object_16"
    },
    {
      "children": [
        18
      ],
      "matrix": [
        0.35924857374834046,
        -0.12387626524293802,
        0.43552794054955096,
        0.0,
        0.04946514553301945,
        0.5633631722625058,
        0.1194344562754493,
        0.0,
        -0.45009234104488954,
        -0.036960260792860564,
        0.3607496049685201,
        0.0,
        -1.0098897218704224,
        0.27436089515686035,
        -0.8905972838401794,
        1.0
      ],
      "name": "Cube.004_9"
    },
    {
      "mesh": 8,
      "name": "Object_18"
    },
    {
      "children": [
        20
      ],
      "matrix": [
        -0.6912806356900904,
        0.25376555551957153,
        -0.2290086367910456,
        0.0,
        0.15488497682273772,
        0.6931179257366943,
        0.3005147368789945,
        0.0,
        0.3047171812615382,
        0.22338641026316394,
        -0.6722773098408912,
        0.0,
        0.36572372913360596,
        -0.7501568794250488,
        -1.1454170942306519,
        1.0
      ],
      "name": "Cube.005_11"
    },
    {
      "mesh": 9,
      "name": "Object_20"
    },
    {
      "children": [
        22
      ],
      "matrix": [
        -0.1959114682981155,
        0.10498161250783727,
        -0.738449990045146,
        0.0,
        -0.16122429541722808,
        0.7394880687643256,
        0.14790214611963967,
        0.0,
        0.728241894803997,
        0.19195617180825789,
        -0.16591383586111247,
        0.0,
        0.7712783217430115,
        -1.471414566040039,
        0.8528907895088196,
        1.0
      ],
      "name": "Cube.006_13"
    },
    {
      "mesh": 10,
      "name": "Object_22"
    },
    {
      "children": [
        24
      ],
      "matrix": [
        0.7582775081313257,
        -0.004802968399295187,
        -0.14036731218431248,
        0.0,
        -0.06312990192417553,
        0.6768229084403515,
        -0.3641926525861778,
        0.0,
        0.125461814646541,
        0.36959245540203295,
        0.6651102015069673,
        0.0,
        -0.7943059802055359,
        -0.2508811950683594,
        1.441840410232544,
        1.0
      ],
      "name": "Cube.007_14"
    },
    {
      "mesh": 11,
      "name": "Object_24"
    },
    {
      "children": [
        26
      ],
      "matrix": [
        0.7292816106104436,
        -0.1061191002901683,
        0.6759342194171283,
        0.0,
        0.24640471363181443,
        0.962347781072911,
        -0.11476700468369841,
        0.0,
        -0.638304824927292,
        0.25025084379008544,
        0.7279707862661038,
        0.0,
        -0.30889537930488586,
        1.5114426612854004,
        0.1463720202445984,
        1.0
      ],
      "name": "Cube.008_16"
    },
    {
      "mesh": 12,
      "name": "Object_26"
    }
  ],
  "samplers": [
    {
      "magFilter": 9729,
      "minFilter": 9987,
      "wrapS": 10497,
      "wrapT": 10497
    }
  ],
  "scene": 0,
  "scenes": [
    {
      "name": "Sketchfab_Scene",
      "nodes": [
        0
      ]
    }
  ],
  "textures": [
    {
      "sampler": 0,
      "source": 0
    },
    {
      "sampler": 0,
      "source": 1
    }
  ]
}
